<svg xmlns="http://www.w3.org/2000/svg" width="26" height="20" fill="none">
	<path fill="#303030" d="M23.091 1.495a13.178 13.178 0 0 0-3.907-.558 10.383 10.383 0 0 0-6.14 1.675A10.383 10.383 0 0 0 6.904.937a10.383 10.383 0 0 0-6.14 1.675v16.354a.6.6 0 0 0 .558.558c.112 0 .167-.056.28-.056a13.625 13.625 0 0 1 5.302-1.231c2.172-.098 4.32.488 6.14 1.675a13.446 13.446 0 0 1 6.14-1.675 11.362 11.362 0 0 1 5.3 1.172.5.5 0 0 0 .28.056.6.6 0 0 0 .557-.558V2.612a7.615 7.615 0 0 0-2.23-1.117Zm0 15.07a12.97 12.97 0 0 0-3.907-.557 13.446 13.446 0 0 0-6.14 1.675V4.843a13.447 13.447 0 0 1 6.14-1.674c1.323-.014 2.64.174 3.907.558v12.839Z" />
</svg>
