<svg xmlns="http://www.w3.org/2000/svg" width="22" height="25" fill="none"><path fill="#303030" d="M19.489 13.276a20.734 20.734 0 0 1-3.859 3.638c-4.46 3.45-9.536 5.673-14.842 7.438-.359.12-.492.073-.41-.347C1.422 18.628 2.458 13.25 3.486 7.87c.082-.417.332-.514.666-.607a26.976 26.976 0 0 0 7-2.785A12.8 12.8 0 0 0 15.668.155c.029-.05.09-.082.174-.155.682 2.124 1.356 4.22 2.027 6.315.608 1.904 1.192 3.816 1.835 5.708a1.2 1.2 0 0 1-.216 1.253ZM7.077 23.91c.865-.26 1.733-.51 2.595-.78a47.605 47.605 0 0 0 9.255-3.711c.41-.229.819-.773 1.211-.602.3.132.38.782.546 1.207.522 1.346.524 1.359-.867 1.787a53.997 53.997 0 0 1-8.691 1.699c-1.34.182-2.684.327-4.026.491l-.023-.09ZM7.843 22.67c.684-.343 1.368-.69 2.055-1.029a34.553 34.553 0 0 0 9.326-6.52c.25-.252.373-.268.502.089.127.397.291.78.49 1.146.333.557.14.875-.341 1.216a31.183 31.183 0 0 1-6.5 3.292 37.376 37.376 0 0 1-5.532 1.806ZM6.762 24.77c3.157-.313 6.307-.617 9.43-1.135a30.057 30.057 0 0 0 3.841-.832c.348-.106.544-.11.69.308.492 1.401.512 1.383-.965 1.412-3.98.077-7.96.16-11.94.245-.351.009-.704.003-1.056.003Z"/></svg>