<svg xmlns="http://www.w3.org/2000/svg" width="21" height="24" fill="none"><path fill="#303030" d="M15.815 20.965a2.125 2.125 0 0 1-.848-.167c-.793-.413-1.35-.982-1.909-2.657a6.577 6.577 0 0 0-2.672-3.349 8.487 8.487 0 0 1-2.59-2.824 6.993 6.993 0 0 1-.91-3.283 5.582 5.582 0 1 1 11.164 0h2.233A7.725 7.725 0 0 0 12.466.871a7.725 7.725 0 0 0-7.815 7.814 9.241 9.241 0 0 0 1.195 4.354 10.641 10.641 0 0 0 3.182 3.517 4.5 4.5 0 0 1 1.91 2.289 6.077 6.077 0 0 0 3.048 3.962 4.47 4.47 0 0 0 6.3-4.075h-2.238a2.239 2.239 0 0 1-2.233 2.233ZM5.366 1.585 3.781 0a12.29 12.29 0 0 0 0 17.371l1.574-1.574a10.053 10.053 0 0 1 .011-14.212Zm4.31 7.1a2.791 2.791 0 1 0 5.581 0 2.791 2.791 0 0 0-5.582 0Z"/></svg>